<svg width="16" height="31" viewBox="0 0 16 31" fill="none" xmlns="http://www.w3.org/2000/svg">
<g clip-path="url(#clip0_710_302)">
<path d="M0 1.14862C0 0.443172 0.354903 0.00234937 1.15343 0.00234937H13.3533C14.9504 -0.0858587 14.9504 2.33911 13.3533 2.33911H2.61744V28.3986H14.5956C16.1926 28.3986 16.7249 31 14.5956 31H1.15343C0.44363 31 1.67183e-06 30.6474 1.67183e-06 29.8537L0 1.14862Z" fill="#181818"/>
<path d="M4.74689 25.4884C4.74689 26.8553 7.36431 27.1197 7.36431 25.4884V14.4208H11.7118C13.3533 14.4208 13.0871 12.0838 11.7118 12.0838H5.90032C5.10179 12.0838 4.74689 12.5249 4.74689 13.2303L4.74689 25.4884Z" fill="#181818"/>
</g>
<defs>
<clipPath id="clip0_710_302">
<rect width="16" height="31" fill="white"/>
</clipPath>
</defs>
</svg>
