<svg width="22" height="37" viewBox="0 0 22 37" fill="none" xmlns="http://www.w3.org/2000/svg">
<g filter="url(#filter0_d_710_302)">
<g clip-path="url(#clip0_710_302)">
<path d="M5 2.14862C5 1.44317 5.3549 1.00235 6.15343 1.00235H18.3533C19.9504 0.914141 19.9504 3.33911 18.3533 3.33911H7.61744V29.3986H19.5956C21.1926 29.3986 21.7249 32 19.5956 32H6.15343C5.44363 32 5 31.6474 5 30.8537L5 2.14862Z" fill="url(#paint0_linear_710_302)"/>
<path d="M9.74689 26.4884C9.74689 27.8553 12.3643 28.1197 12.3643 26.4884V15.4208H16.7118C18.3533 15.4208 18.0871 13.0838 16.7118 13.0838H10.9003C10.1018 13.0838 9.74689 13.5249 9.74689 14.2303L9.74689 26.4884Z" fill="url(#paint1_linear_710_302)"/>
</g>
</g>
<defs>
<filter id="filter0_d_710_302" x="0" y="0" width="22" height="37" filterUnits="userSpaceOnUse" color-interpolation-filters="sRGB">
<feFlood flood-opacity="0" result="BackgroundImageFix"/>
<feColorMatrix in="SourceAlpha" type="matrix" values="0 0 0 0 0 0 0 0 0 0 0 0 0 0 0 0 0 0 127 0" result="hardAlpha"/>
<feOffset dx="-2" dy="2"/>
<feGaussianBlur stdDeviation="1.5"/>
<feComposite in2="hardAlpha" operator="out"/>
<feColorMatrix type="matrix" values="0 0 0 0 1 0 0 0 0 0.345098 0 0 0 0 0 0 0 0 0.25 0"/>
<feBlend mode="normal" in2="BackgroundImageFix" result="effect1_dropShadow_710_302"/>
<feBlend mode="normal" in="SourceGraphic" in2="effect1_dropShadow_710_302" result="shape"/>
</filter>
<linearGradient id="paint0_linear_710_302" x1="13" y1="1" x2="13" y2="32" gradientUnits="userSpaceOnUse">
<stop stop-color="#FF5E00"/>
<stop offset="1" stop-color="#E04D00"/>
</linearGradient>
<linearGradient id="paint1_linear_710_302" x1="13.7961" y1="13.0838" x2="13.7961" y2="27.6149" gradientUnits="userSpaceOnUse">
<stop stop-color="#FF5E00"/>
<stop offset="1" stop-color="#E04D00"/>
</linearGradient>
<clipPath id="clip0_710_302">
<rect width="16" height="31" fill="white" transform="translate(5 1)"/>
</clipPath>
</defs>
</svg>
